<svg width="1200" height="900" viewBox="0 0 1200 900" fill="none" xmlns="http://www.w3.org/2000/svg">
  <defs>
    <linearGradient id="bg" x1="120" y1="120" x2="1050" y2="780" gradientUnits="userSpaceOnUse">
      <stop stop-color="#FFF5E8"/>
      <stop offset="1" stop-color="#FFD6A6"/>
    </linearGradient>
    <linearGradient id="accent" x1="708" y1="226" x2="1010" y2="612" gradientUnits="userSpaceOnUse">
      <stop stop-color="#0D4C92"/>
      <stop offset="1" stop-color="#4E9FFF"/>
    </linearGradient>
  </defs>
  <rect width="1200" height="900" rx="42" fill="url(#bg)"/>
  <circle cx="236" cy="708" r="182" fill="#FFFFFF" fill-opacity="0.34"/>
  <circle cx="980" cy="166" r="122" fill="#FFFFFF" fill-opacity="0.4"/>
  <rect x="104" y="110" width="992" height="680" rx="30" fill="#FFFFFF" fill-opacity="0.82"/>
  <rect x="158" y="170" width="414" height="560" rx="26" fill="#FFF8EF"/>
  <rect x="206" y="236" width="180" height="16" rx="8" fill="#E4B97A"/>
  <rect x="206" y="272" width="292" height="88" rx="20" fill="#17385F"/>
  <rect x="206" y="386" width="312" height="18" rx="9" fill="#B89058"/>
  <rect x="206" y="420" width="286" height="18" rx="9" fill="#D0B083"/>
  <rect x="206" y="474" width="158" height="52" rx="16" fill="#C87F18"/>
  <rect x="632" y="206" width="392" height="242" rx="28" fill="url(#accent)"/>
  <rect x="672" y="252" width="134" height="14" rx="7" fill="#D6EAFE"/>
  <rect x="672" y="286" width="222" height="18" rx="9" fill="#FFFFFF"/>
  <rect x="672" y="322" width="244" height="18" rx="9" fill="#CBE5FF"/>
  <rect x="632" y="492" width="392" height="190" rx="28" fill="#FFF8EF"/>
  <rect x="672" y="538" width="168" height="16" rx="8" fill="#D4B184"/>
  <rect x="672" y="574" width="274" height="18" rx="9" fill="#193A60"/>
  <rect x="672" y="610" width="230" height="14" rx="7" fill="#C8AB84"/>
</svg>
